<svg version="1.1" id="Layer_1" xmlns="http://www.w3.org/2000/svg" xmlns:xlink="http://www.w3.org/1999/xlink" x="0px" y="0px"
	 width="100%" viewBox="0 0 324 324" enable-background="new 0 0 324 324" xml:space="preserve">
<path fill="#FFFEFF" opacity="1.000000" stroke="none" 
	d="
M181.000000,325.000000 
	C120.666687,325.000000 60.833378,325.000000 1.000048,325.000000 
	C1.000032,217.000061 1.000032,109.000122 1.000016,1.000135 
	C108.999901,1.000090 216.999802,1.000090 324.999756,1.000045 
	C324.999847,108.999870 324.999847,216.999741 324.999939,324.999817 
	C277.166656,325.000000 229.333328,325.000000 181.000000,325.000000 
M322.245697,161.991547 
	C321.761200,154.358948 321.894135,146.627350 320.689026,139.110275 
	C314.297272,99.239792 295.934845,65.812721 264.668579,40.181442 
	C225.072510,7.721589 179.683838,-3.364357 129.519745,6.795385 
	C93.506416,14.089170 63.585133,32.336315 40.133003,60.557556 
	C15.540740,90.150772 2.894712,124.330376 2.936511,163.939880 
	C3.689756,173.208115 3.622725,182.630066 5.326016,191.720276 
	C18.956787,264.465851 79.216431,318.443634 154.279800,322.785828 
	C184.485306,324.533142 213.222824,318.087280 239.620239,303.093140 
	C284.781830,277.440613 311.838654,238.756485 320.714478,187.602768 
	C322.115051,179.530899 321.752655,171.153107 322.245697,161.991547 
z"/>
<path fill="#B760EA" opacity="1.000000" stroke="none" 
	d="
M3.091961,163.018890 
	C2.894712,124.330376 15.540740,90.150772 40.133003,60.557556 
	C63.585133,32.336315 93.506416,14.089170 129.519745,6.795385 
	C179.683838,-3.364357 225.072510,7.721589 264.668579,40.181442 
	C295.934845,65.812721 314.297272,99.239792 320.689026,139.110275 
	C321.894135,146.627350 321.761200,154.358948 321.740112,162.480499 
	C295.850311,162.991394 270.466095,163.013351 244.980423,162.667023 
	C243.114578,158.607407 241.964172,154.429153 239.485901,151.303894 
	C223.679077,131.370529 207.567429,111.679054 191.583099,91.886177 
	C185.330460,84.143738 176.460342,82.788033 169.261536,88.556984 
	C162.745056,93.779137 162.169235,102.968285 168.045990,110.419220 
	C173.708374,117.598373 179.565170,124.624001 185.244507,131.790024 
	C193.480286,142.181717 201.633301,152.639008 209.364624,163.047333 
	C195.887405,163.030899 182.867203,163.035461 169.657288,163.029602 
	C169.467606,163.019180 169.090836,162.970184 169.111725,162.567047 
	C167.855362,159.005783 167.207855,155.357574 165.195358,152.771667 
	C154.685822,139.267685 143.843979,126.021904 133.088364,112.710037 
	C126.928246,105.085854 120.889320,97.352837 114.460541,89.960396 
	C110.014549,84.847969 103.696106,83.781105 97.626724,86.313889 
	C92.015289,88.655579 88.042770,94.171089 89.091530,100.613327 
	C89.792313,104.918030 92.039566,109.391472 94.764023,112.874901 
	C107.963440,129.751389 121.558327,146.318573 134.886597,163.198761 
	C134.569397,163.678024 134.310913,163.854965 133.683044,163.647156 
	C132.067856,163.240677 130.754349,163.014984 129.440765,163.014618 
	C87.324493,163.002609 45.208229,163.012390 3.091961,163.018890 
z"/>
<path fill="#A24BDB" opacity="1.000000" stroke="none" 
	d="
M3.014236,163.479385 
	C45.208229,163.012390 87.324493,163.002609 129.440765,163.014618 
	C130.754349,163.014984 132.067856,163.240677 133.542572,163.954666 
	C129.100815,170.238480 124.491936,175.924164 119.896133,181.620407 
	C110.496567,193.270660 101.040657,204.876328 91.737701,216.603287 
	C87.625114,221.787476 87.096756,227.638962 90.414284,233.351486 
	C93.700432,239.009964 98.899902,241.651276 105.530617,240.954727 
	C111.375687,240.340729 114.852547,236.222870 118.226768,232.050446 
	C130.672668,216.660477 143.260300,201.380753 155.452637,185.792084 
	C160.977554,178.728119 168.568390,172.837387 169.846985,163.040009 
	C182.867203,163.035461 195.887405,163.030899 209.454285,163.033417 
	C210.000931,163.040482 210.155945,162.946136 209.995132,163.251282 
	C195.740784,181.008957 181.593536,198.418488 167.579895,215.934921 
	C161.920471,223.008957 162.831573,232.417252 169.379684,237.741196 
	C175.941589,243.076355 185.537766,241.963715 191.155914,235.035431 
	C207.795151,214.516022 224.472702,194.025391 240.836868,173.288040 
	C243.016418,170.526031 243.471344,166.403076 244.809937,162.953735 
	C244.894928,162.997086 245.081879,163.035294 245.081879,163.035294 
	C270.466095,163.013351 295.850311,162.991394 321.719971,162.943100 
	C321.752655,171.153107 322.115051,179.530899 320.714478,187.602768 
	C311.838654,238.756485 284.781830,277.440613 239.620239,303.093140 
	C213.222824,318.087280 184.485306,324.533142 154.279800,322.785828 
	C79.216431,318.443634 18.956787,264.465851 5.326016,191.720276 
	C3.622725,182.630066 3.689756,173.208115 3.014236,163.479385 
z"/>
<path fill="#F5EEEA" opacity="1.000000" stroke="none" 
	d="
M169.657288,163.029602 
	C168.568390,172.837387 160.977554,178.728119 155.452637,185.792084 
	C143.260300,201.380753 130.672668,216.660477 118.226768,232.050446 
	C114.852547,236.222870 111.375687,240.340729 105.530617,240.954727 
	C98.899902,241.651276 93.700432,239.009964 90.414284,233.351486 
	C87.096756,227.638962 87.625114,221.787476 91.737701,216.603287 
	C101.040657,204.876328 110.496567,193.270660 119.896133,181.620407 
	C124.491936,175.924164 129.100815,170.238480 133.844223,164.240494 
	C134.310913,163.854965 134.569397,163.678024 135.354111,163.200653 
	C146.995667,162.989517 158.043243,162.979858 169.090836,162.970184 
	C169.090836,162.970184 169.467606,163.019180 169.657288,163.029602 
z"/>
<path fill="#FEF3F4" opacity="1.000000" stroke="none" 
	d="
M209.911285,163.054398 
	C201.633301,152.639008 193.480286,142.181717 185.244507,131.790024 
	C179.565170,124.624001 173.708374,117.598373 168.045990,110.419220 
	C162.169235,102.968285 162.745056,93.779137 169.261536,88.556984 
	C176.460342,82.788033 185.330460,84.143738 191.583099,91.886177 
	C207.567429,111.679054 223.679077,131.370529 239.485901,151.303894 
	C241.964172,154.429153 243.114578,158.607407 244.980423,162.667023 
	C245.081879,163.035294 244.894928,162.997086 244.362976,162.983215 
	C232.606003,162.961609 221.380966,162.953873 210.155945,162.946136 
	C210.155945,162.946136 210.000931,163.040482 209.911285,163.054398 
z"/>
<path fill="#FEF3F4" opacity="1.000000" stroke="none" 
	d="
M169.111725,162.567047 
	C158.043243,162.979858 146.995667,162.989517 135.480560,162.997284 
	C121.558327,146.318573 107.963440,129.751389 94.764023,112.874901 
	C92.039566,109.391472 89.792313,104.918030 89.091530,100.613327 
	C88.042770,94.171089 92.015289,88.655579 97.626724,86.313889 
	C103.696106,83.781105 110.014549,84.847969 114.460541,89.960396 
	C120.889320,97.352837 126.928246,105.085854 133.088364,112.710037 
	C143.843979,126.021904 154.685822,139.267685 165.195358,152.771667 
	C167.207855,155.357574 167.855362,159.005783 169.111725,162.567047 
z"/>
<path fill="#F5EEEA" opacity="1.000000" stroke="none" 
	d="
M209.995132,163.251282 
	C221.380966,162.953873 232.606003,162.961609 244.277985,162.939865 
	C243.471344,166.403076 243.016418,170.526031 240.836868,173.288040 
	C224.472702,194.025391 207.795151,214.516022 191.155914,235.035431 
	C185.537766,241.963715 175.941589,243.076355 169.379684,237.741196 
	C162.831573,232.417252 161.920471,223.008957 167.579895,215.934921 
	C181.593536,198.418488 195.740784,181.008957 209.995132,163.251282 
z"/>
</svg>